<?xml version="1.0" standalone="no"?>
<!DOCTYPE svg PUBLIC "-//W3C//DTD SVG 20010904//EN"
 "http://www.w3.org/TR/2001/REC-SVG-20010904/DTD/svg10.dtd">
<svg version="1.0" xmlns="http://www.w3.org/2000/svg"
 width="600.000000pt" height="600.000000pt" viewBox="0 0 600.000000 600.000000"
 preserveAspectRatio="xMidYMid meet">
<metadata>
Created by potrace 1.11, written by Peter Selinger 2001-2013
</metadata>
<g transform="translate(0.000000,600.000000) scale(0.100000,-0.100000)"
fill="#000000" stroke="none">
<path d="M5055 5855 c-1449 -148 -4040 -889 -4715 -1348 -61 -42 -149 -126
-166 -159 -8 -15 -14 -48 -14 -73 0 -319 830 -1377 1989 -2535 1045 -1044
1850 -1660 2079 -1592 233 70 664 1079 1066 2494 438 1541 645 2839 497 3116
-19 35 -73 70 -136 88 -83 23 -412 28 -600 9z m-968 -416 c49 -61 89 -114 91
-118 1 -5 -34 -38 -80 -75 -116 -95 -190 -166 -185 -180 3 -6 80 -98 172 -205
160 -187 166 -195 148 -212 -10 -9 -61 -53 -113 -98 -73 -62 -97 -78 -106 -68
-6 6 -80 92 -164 191 l-153 178 -26 -32 c-46 -59 -142 -194 -168 -237 l-25
-43 243 -267 c133 -148 256 -283 273 -301 l31 -34 -105 -99 c-58 -54 -108 -99
-112 -99 -4 0 -107 110 -229 245 -122 135 -226 245 -230 245 -11 0 -29 -120
-29 -202 0 -283 194 -532 473 -605 67 -18 239 -21 291 -6 l30 9 -74 78 c-60
63 -72 81 -64 94 6 9 55 57 108 106 l98 91 36 -40 c20 -22 73 -79 117 -128
l82 -87 89 56 c103 64 194 131 194 142 0 5 -118 133 -262 286 -145 154 -264
282 -266 286 -1 3 46 51 105 107 l108 100 274 -289 274 -290 54 54 c31 29 98
104 150 166 l94 113 67 -53 c37 -29 90 -70 117 -92 28 -22 52 -41 54 -43 9 -6
-186 -231 -299 -343 -352 -351 -717 -568 -1054 -626 -92 -17 -308 -15 -350 2
-17 6 -18 4 -13 -22 15 -68 19 -224 8 -307 -40 -302 -204 -607 -487 -906 -85
-90 -316 -291 -334 -291 -5 0 -106 125 -182 226 -5 7 20 33 72 74 l79 62 -134
145 -135 145 73 67 c90 84 143 131 149 131 3 0 60 -61 128 -135 68 -74 127
-135 130 -135 20 0 203 262 198 284 -2 8 -108 125 -236 261 l-234 247 24 25
c12 14 61 60 108 103 l86 78 189 -200 c157 -167 190 -197 196 -182 14 34 10
218 -6 279 -55 218 -210 383 -425 455 -65 22 -280 41 -280 25 0 -4 44 -57 97
-117 l97 -111 -26 -21 c-14 -11 -66 -55 -115 -97 l-88 -77 -135 159 c-74 87
-140 159 -145 159 -28 0 -314 -191 -315 -211 0 -5 363 -396 558 -602 l36 -37
-103 -98 c-57 -53 -107 -98 -111 -100 -4 -2 -139 138 -301 310 -161 172 -295
314 -298 315 -3 1 -37 -38 -76 -87 -38 -49 -75 -87 -81 -85 -7 2 -62 43 -122
91 -100 79 -110 89 -98 106 49 70 194 233 279 314 270 256 570 428 837 478 88
17 287 21 358 7 l43 -8 -8 71 c-11 102 -6 240 12 329 68 331 287 690 629 1033
103 103 312 283 328 284 4 0 47 -50 95 -111z"/>
</g>
</svg>
